<?xml version="1.0" encoding="UTF-8"?>
<svg width="176px" height="108px" viewBox="0 0 176 108" version="1.1" xmlns="http://www.w3.org/2000/svg" xmlns:xlink="http://www.w3.org/1999/xlink">
    <!-- Generator: sketchtool 49.1 (51147) - http://www.bohemiancoding.com/sketch -->
    <title>99E3701F-E6D2-4D9B-A8D3-4117908355DB</title>
    <desc>Created with sketchtool.</desc>
    <defs>
        <path d="M16.5452689,0.206940436 C13.9670139,0.206940436 11.6209073,1.6924562 10.518202,4.02273448 L0.52467901,25.1429699 C-0.911593139,28.1767284 1.30202467,31.6724389 4.65879786,31.6724389 C4.65879786,31.6724389 42.1150168,33.1802316 54.6012048,33.1802316 C67.0862203,33.1802316 104.543025,31.6724389 104.543025,31.6724389 C107.900385,31.6724389 110.113416,28.1767284 108.677144,25.1429699 L98.6836213,4.02273448 C97.5803298,1.6924562 95.2348095,0.206940436 92.6571406,0.206940436" id="path-1"></path>
        <path d="M16.5452689,0.206940436 C13.9670139,0.206940436 11.6209073,1.6924562 10.518202,4.02273448 L0.52467901,25.1429699 C-0.911593139,28.1767284 1.30202467,31.6724389 4.65879786,31.6724389 C4.65879786,31.6724389 42.1150168,33.1802316 54.6012048,33.1802316 C67.0862203,33.1802316 104.543025,31.6724389 104.543025,31.6724389 C107.900385,31.6724389 110.113416,28.1767284 108.677144,25.1429699 L98.6836213,4.02273448 C97.5803298,1.6924562 95.2348095,0.206940436 92.6571406,0.206940436" id="path-3"></path>
        <path d="M16.5452689,0.206940436 C13.9670139,0.206940436 11.6209073,1.6924562 10.518202,4.02273448 L0.52467901,25.1429699 C-0.911593139,28.1767284 1.30202467,31.6724389 4.65879786,31.6724389 C4.65879786,31.6724389 42.1150168,33.1802316 54.6012048,33.1802316 C67.0862203,33.1802316 104.543025,31.6724389 104.543025,31.6724389 C107.900385,31.6724389 110.113416,28.1767284 108.677144,25.1429699 L98.6836213,4.02273448 C97.5803298,1.6924562 95.2348095,0.206940436 92.6571406,0.206940436" id="path-5"></path>
        <path d="M16.5452689,0.206940436 C13.9670139,0.206940436 11.6209073,1.6924562 10.518202,4.02273448 L0.52467901,25.1429699 C-0.911593139,28.1767284 1.30202467,31.6724389 4.65879786,31.6724389 C4.65879786,31.6724389 42.1150168,33.1802316 54.6012048,33.1802316 C67.0862203,33.1802316 104.543025,31.6724389 104.543025,31.6724389 C107.900385,31.6724389 110.113416,28.1767284 108.677144,25.1429699 L98.6836213,4.02273448 C97.5803298,1.6924562 95.2348095,0.206940436 92.6571406,0.206940436" id="path-7"></path>
        <path d="M16.5452689,0.206940436 C13.9670139,0.206940436 11.6209073,1.6924562 10.518202,4.02273448 L0.52467901,25.1429699 C-0.911593139,28.1767284 1.30202467,31.6724389 4.65879786,31.6724389 C4.65879786,31.6724389 42.1150168,33.1802316 54.6012048,33.1802316 C67.0862203,33.1802316 104.543025,31.6724389 104.543025,31.6724389 C107.900385,31.6724389 110.113416,28.1767284 108.677144,25.1429699 L98.6836213,4.02273448 C97.5803298,1.6924562 95.2348095,0.206940436 92.6571406,0.206940436 L16.5452689,0.206940436 Z" id="path-9"></path>
        <path d="M16.5452689,0.206940436 C13.9670139,0.206940436 11.6209073,1.6924562 10.518202,4.02273448 L0.52467901,25.1429699 C-0.911593139,28.1767284 1.30202467,31.6724389 4.65879786,31.6724389 C4.65879786,31.6724389 42.1150168,33.1802316 54.6012048,33.1802316 C67.0862203,33.1802316 104.543025,31.6724389 104.543025,31.6724389 C107.900385,31.6724389 110.113416,28.1767284 108.677144,25.1429699 L98.6836213,4.02273448 C97.5803298,1.6924562 95.2348095,0.206940436 92.6571406,0.206940436 L16.5452689,0.206940436 Z" id="path-11"></path>
    </defs>
    <g id="Page-1" stroke="none" stroke-width="1" fill="none" fill-rule="evenodd" opacity="0.699999988">
        <g id="Etapa---1" transform="translate(-85.000000, -153.000000)">
            <g id="Page-1" transform="translate(84.000000, 153.000000)">
                <g id="Group-3">
                    <g id="Group">
                        <g id="Group-37" transform="translate(0.890459, 0.142063)">
                            <path d="M133.006973,97.853456 C133.006973,101.737253 103.457708,104.885913 67.0069733,104.885913 C30.5562383,104.885913 1.00697333,101.737253 1.00697333,97.853456 C1.00697333,93.9696589 31.1391609,93.3236295 67.589896,93.3236295 C104.040631,93.3236295 133.006973,93.9696589 133.006973,97.853456" id="Fill-9" fill="#79797A" opacity="0.119999997"></path>
                            <path d="M23.3907765,59.8999938 L0.901099559,59.8999938 C0.577498651,59.8999938 0.314866029,60.1620402 0.314866029,60.4862273 L0.314866029,97.2671052 C0.314866029,97.5907061 0.577498651,97.8533388 0.901099559,97.8533388 L23.3907765,97.8533388 C23.7143774,97.8533388 23.97701,97.5907061 23.97701,97.2671052 L23.97701,60.4862273 C23.97701,60.1620402 23.7143774,59.8999938 23.3907765,59.8999938" id="Fill-11" fill="#414141"></path>
                            <path d="M146.602878,59.9560963 L124.113787,59.9560963 C123.790186,59.9560963 123.527553,60.2181427 123.527553,60.5423299 L123.527553,97.3232078 C123.527553,97.6468087 123.790186,97.9094413 124.113787,97.9094413 L146.602878,97.9094413 C146.927065,97.9094413 147.189111,97.6468087 147.189111,97.3232078 L147.189111,60.5423299 C147.189111,60.2181427 146.927065,59.9560963 146.602878,59.9560963" id="Fill-13" fill="#1D1D1D"></path>
                            <path d="M1.17117735,25.1293106 L11.3569849,25.1293106 C11.8728704,25.1293106 12.3025796,25.5261907 12.343616,26.0403175 L12.3453747,26.0620082 C12.4514829,27.3968619 12.797947,28.7012315 13.3677659,29.9129762 L15.1768826,33.7604269 C15.4096173,34.2546218 15.1968146,34.8443727 14.7026197,35.0771074 L12.0088766,36.3433718 C11.5140955,36.5761065 10.9243446,36.36389 10.6921961,35.8691089 L9.65983886,33.6748368 C9.27526967,32.857041 8.45278403,32.334707 7.54939816,32.334707 L2.28033119,32.334707 C1.81251683,32.334707 1.40918816,32.0075886 1.31187339,31.5503265 L0.203305788,26.3246408 C0.0719894775,25.7090956 0.542148769,25.1293106 1.17117735,25.1293106" id="Fill-15" fill="#FF1F1F"></path>
                            <path d="M146.576556,25.1293106 L136.390748,25.1293106 C135.874276,25.1293106 135.44574,25.5261907 135.404117,26.0403175 C135.296836,27.3892409 134.946855,28.7076801 134.371174,29.9323219 L132.570851,33.7604269 C132.338702,34.2546218 132.550919,34.8443727 133.0457,35.0771074 L135.739443,36.3433718 C136.233051,36.5761065 136.822802,36.36389 137.056123,35.8691089 L138.087894,33.6748368 C138.472463,32.857041 139.294949,32.334707 140.198335,32.334707 L145.467402,32.334707 C145.93463,32.334707 146.339131,32.0075886 146.43586,31.5503265 L147.544427,26.3246408 C147.675157,25.7090956 147.205584,25.1293106 146.576556,25.1293106" id="Fill-17" fill="#EC3839"></path>
                            <path d="M138.56333,92.2218036 L7.22181086,92.2218036 C3.94007556,92.2218036 1.36592413,89.662308 1.27154053,86.4444722 L0.155938119,48.5304048 C-0.103763335,39.7005554 6.98380005,32.4013617 15.8177531,32.4013617 L131.743089,32.4013617 C140.577042,32.4013617 147.664019,39.7005554 147.404318,48.5304048 L146.289301,86.4444722 C146.194918,89.662308 143.558626,92.2218036 138.56333,92.2218036" id="Fill-19" fill="#FF1F1F"></path>
                            <path d="M135.961391,52.3436194 L115.970241,53.677887 C111.361273,53.9856596 107.401852,56.5416378 105.366449,60.5725795 L104.818321,61.6576978 L43.2297985,61.6576978 L42.6781527,60.5825455 C40.6099208,56.5469139 36.6112219,54.0073502 31.9770459,53.7359241 L8.19003416,52.3436194 C6.80476433,52.3436194 4.41996632,51.5645151 4.51141876,50.5890225 L5.55843184,39.4740348 C5.79292525,36.9807836 12.6653409,34.9453807 20.7477426,34.9453807 C20.7477426,34.9453807 61.5255607,38.66386 74.8342343,38.66386 C88.0414895,38.66386 126.813217,34.9453807 126.813217,34.9453807 C134.895032,34.9453807 141.767448,36.9807836 142.002527,39.4740348 L143.048954,50.5890225 C143.140407,51.5645151 140.756195,52.3436194 135.961391,52.3436194" id="Fill-21" fill="#FF3E3F"></path>
                            <path d="M113.425695,0.731619446 C113.425695,0.731619446 83.8162114,0.120764107 73.9463837,0.120764107 C64.0765559,0.120764107 34.467659,0.731619446 34.467659,0.731619446 C31.560527,0.731619446 28.9136826,2.40707488 27.669695,5.03515979 L14.1259418,33.6585981 L133.766826,33.6585981 L120.223659,5.03515979 C118.979671,2.40707488 116.332827,0.731619446 113.425695,0.731619446" id="Fill-23" fill="#FF1F1F"></path>
                            <path d="M103.093915,83.7054132 L44.8750629,83.7054132 C42.5254389,83.7054132 40.7661521,81.5504188 41.2363114,79.2476935 L45.3417048,59.1533668 C45.6946174,57.4245641 47.2158934,56.1823352 48.9804563,56.1823352 L98.9891076,56.1823352 C100.753671,56.1823352 102.274947,57.4245641 102.627859,59.1533668 L106.733253,79.2476935 C107.203998,81.5504188 105.444711,83.7054132 103.093915,83.7054132" id="Fill-25" fill="#FF1F1F"></path>
                            <path d="M103.093915,87.2565815 L44.8750629,87.2565815 C42.5254389,87.2565815 40.7661521,85.101587 41.2363114,82.7988617 L45.3417048,62.704535 C45.6946174,60.9757323 47.2158934,59.7340897 48.9804563,59.7340897 L98.9891076,59.7340897 C100.753671,59.7340897 102.274947,60.9757323 102.627859,62.704535 L106.733253,82.7988617 C107.203998,85.101587 105.444711,87.2565815 103.093915,87.2565815" id="Fill-27" fill="#2D2020"></path>
                            <path d="M103.323484,87.2565815 L48.6947261,87.2565815 C46.4893155,87.2565815 44.8384819,85.3272869 45.2799158,83.2655036 L49.1320563,65.275169 C49.4638645,63.7275125 50.8913431,62.6160137 52.5468666,62.6160137 L99.4713433,62.6160137 C101.127453,62.6160137 102.554345,63.7275125 102.886154,65.275169 L106.737708,83.2655036 C107.179142,85.3272869 105.528894,87.2565815 103.323484,87.2565815" id="Fill-29" fill="#4D3A3A"></path>
                            <path d="M112.002495,3.72434162 L35.8906237,3.72434162 C33.3129548,3.72434162 30.9668483,5.20985738 29.864143,7.53954943 L19.8700338,28.6597848 C18.4343479,31.6941296 20.6479657,35.1898401 24.0047389,35.1898401 C24.0047389,35.1898401 61.4609578,36.6976328 73.9465595,36.6976328 C86.4321613,36.6976328 123.88838,35.1898401 123.88838,35.1898401 C127.24574,35.1898401 129.458771,31.6941296 128.023085,28.6597848 L118.028976,7.53954943 C116.926271,5.20985738 114.580164,3.72434162 112.002495,3.72434162" id="Fill-31" fill="#90DAE1"></path>
                            <path d="M90.8253953,6.70785992 L57.06831,6.70785992 C51.791622,6.70785992 46.9886106,9.74923948 44.7316115,14.5182492 L41.3050766,21.7594058 C40.4386234,23.5913856 41.7740634,25.7012401 43.8006727,25.7012401 C43.8006727,25.7012401 66.4099413,26.6116607 73.9465595,26.6116607 C81.4831778,26.6116607 104.092446,25.7012401 104.092446,25.7012401 C106.119056,25.7012401 107.454496,23.5913856 106.588629,21.7594058 L103.162094,14.5182492 C100.904508,9.74923948 96.1014971,6.70785992 90.8253953,6.70785992" id="Fill-33" fill="#90DAE1"></path>
                            <path d="M84.1369397,10.9803885 L62.0570401,10.9803885 C61.9122404,10.9803885 61.7944074,10.8631418 61.7944074,10.7177559 L61.7944074,7.16811187 C61.7944074,7.02272595 61.9122404,6.90547925 62.0570401,6.90547925 L84.1369397,6.90547925 C84.2817394,6.90547925 84.3989861,7.02272595 84.3989861,7.16811187 L84.3989861,10.7177559 C84.3989861,10.8631418 84.2817394,10.9803885 84.1369397,10.9803885" id="Fill-35" fill="#465C61"></path>
                        </g>
                        <g id="Group-56" transform="translate(20.236165, 3.659464)">
                            <g id="Group-40">
                                <mask id="mask-2" fill="white">
                                    <use xlink:href="#path-1"></use>
                                </mask>
                                <g id="Clip-39"></g>
                                <path d="M89.0363278,41.2092274 L68.1851736,41.2092274 C65.7986169,41.2092274 63.9724995,39.0835446 64.3318606,36.7245409 L66.9024947,19.8685682 C67.192094,17.9650679 68.8294443,16.5592799 70.7546352,16.5592799 L86.4656938,16.5592799 C88.391471,16.5592799 90.028235,17.9650679 90.3190068,19.8685682 L92.8884684,36.7245409 C93.249002,39.0835446 91.4228845,41.2092274 89.0363278,41.2092274" id="Fill-38" fill="#527A85" mask="url(#mask-2)"></path>
                            </g>
                            <g id="Group-43">
                                <mask id="mask-4" fill="white">
                                    <use xlink:href="#path-3"></use>
                                </mask>
                                <g id="Clip-42"></g>
                                <path d="M39.317569,41.2092274 L18.4664148,41.2092274 C16.0798581,41.2092274 14.2537407,39.0835446 14.6136881,36.7245409 L17.1837359,19.8685682 C17.4739215,17.9650679 19.1106855,16.5592799 21.0364626,16.5592799 L36.7475212,16.5592799 C38.6732984,16.5592799 40.3100624,17.9650679 40.600248,19.8685682 L43.1702958,36.7245409 C43.5302432,39.0835446 41.7041257,41.2092274 39.317569,41.2092274" id="Fill-41" fill="#527A85" mask="url(#mask-4)"></path>
                            </g>
                            <g id="Group-46">
                                <mask id="mask-6" fill="white">
                                    <use xlink:href="#path-5"></use>
                                </mask>
                                <g id="Clip-45"></g>
                                <path d="M117.284342,37.7118168 L-6.29720333,37.7118168 C-7.80147857,37.7118168 -7.32428448,36.4379313 -5.34984995,34.9559329 L2.12111016,29.3468505 C3.55327867,28.2716982 5.61916563,27.4415915 6.80452983,27.4415915 L104.181437,27.4415915 C105.367387,27.4415915 107.433274,28.2716982 108.865443,29.3468505 L116.336989,34.9559329 C118.310837,36.4379313 118.788031,37.7118168 117.284342,37.7118168" id="Fill-44" fill="#4B585C" mask="url(#mask-6)"></path>
                            </g>
                            <g id="Group-49">
                                <mask id="mask-8" fill="white">
                                    <use xlink:href="#path-7"></use>
                                </mask>
                                <g id="Clip-48"></g>
                                <path d="M96.691717,27.4418847 C96.691717,29.6431916 90.6863407,31.4282727 83.2792801,31.4282727 C75.8716332,31.4282727 69.8668431,29.6431916 69.8668431,27.4418847 C69.8668431,25.2399915 75.8716332,23.4554967 83.2792801,23.4554967 C90.6863407,23.4554967 96.691717,25.2399915 96.691717,27.4418847" id="Fill-47" fill="#4B585C" mask="url(#mask-8)"></path>
                            </g>
                            <g id="Group-52">
                                <mask id="mask-10" fill="white">
                                    <use xlink:href="#path-9"></use>
                                </mask>
                                <g id="Clip-51"></g>
                                <polygon id="Fill-50" fill="#FFFFFF" mask="url(#mask-10)" points="26.8283327 44.9478731 66.494652 -8.60045625 75.5589949 -1.88632363 35.8926755 51.6620057"></polygon>
                            </g>
                            <g id="Group-55">
                                <mask id="mask-12" fill="white">
                                    <use xlink:href="#path-11"></use>
                                </mask>
                                <g id="Clip-54"></g>
                                <polygon id="Fill-53" fill="#FFFFFF" mask="url(#mask-12)" points="17.5679533 47.6357538 57.2336864 -5.91257552 60.1249902 -3.77106443 20.4586709 49.7766787"></polygon>
                            </g>
                        </g>
                        <g id="Group-65" transform="translate(6.752794, 55.834248)">
                            <path d="M26.923068,11.9249866 L1.68512828,10.3509496 C0.830986029,10.2981886 0.165024739,9.59001845 0.165024739,8.73353126 L0.165024739,1.9086005 C0.165024739,0.97297179 0.95409507,0.231972608 1.88679262,0.290009727 L27.1247323,1.86346052 C27.9794608,1.91680777 28.6454221,2.62556411 28.6454221,3.4820513 L28.6454221,10.3063958 C28.6454221,11.2420245 27.8563518,11.98361 26.923068,11.9249866" id="Fill-57" fill="#FFFFFF"></path>
                            <path d="M109.349554,11.9249866 L134.587494,10.3509496 C135.442222,10.2981886 136.108184,9.59001845 136.108184,8.73353126 L136.108184,1.9086005 C136.108184,0.97297179 135.319113,0.231972608 134.38583,0.290009727 L109.14789,1.86346052 C108.293161,1.91680777 107.6272,2.62556411 107.6272,3.4820513 L107.6272,10.3063958 C107.6272,11.2420245 108.41627,11.98361 109.349554,11.9249866" id="Fill-59" fill="#FFFFFF"></path>
                            <path d="M23.0229736,26.9386618 L4.12983935,25.721641 C3.55239932,25.6905706 3.10803431,26.2246294 3.24521295,26.7868273 L4.25060346,30.9068766 C4.34440082,31.2932045 4.69027861,31.5646306 5.08774494,31.5646306 L28.7885803,31.5646306 C29.0459369,31.5646306 29.2159446,31.2984806 29.1080776,31.0645734 C28.0000962,28.668637 25.6586795,27.0811166 23.0229736,26.9386618" id="Fill-61" fill="#241919"></path>
                            <path d="M113.249414,26.9386618 L132.143135,25.721641 C132.720575,25.6905706 133.16494,26.2246294 133.027175,26.7868273 L132.02237,30.9068766 C131.927987,31.2932045 131.582109,31.5646306 131.185229,31.5646306 L107.483807,31.5646306 C107.227037,31.5646306 107.057029,31.2984806 107.16431,31.0645734 C108.272878,28.668637 110.614294,27.0811166 113.249414,26.9386618" id="Fill-63" fill="#241919"></path>
                        </g>
                    </g>
                    <g id="Group-2" transform="translate(113.000000, 40.000000)" stroke="#FFFFFF">
                        <path d="M61.8491846,10.3870722 C61.7777362,9.25376963 60.7460214,8.37546014 59.5313986,8.43354189 C45.7289969,9.08802413 35.7833798,2.93844107 32.3295642,0.428175877 C31.5450608,-0.142725292 30.4504713,-0.142725292 29.6659679,0.428175877 C26.2107233,2.93844107 16.2651062,9.08802413 2.46842038,8.43354189 C1.2537976,8.37546014 0.222082726,9.25376963 0.150634327,10.3884888 C-0.440958415,19.7184022 -0.811061121,57.2137177 30.3833098,65.9160648 C30.7834208,66.0279784 31.2121112,66.0279784 31.6122223,65.9160648 C62.815167,57.2137177 62.4407774,19.7184022 61.8491846,10.3870722" id="Fill-18" stroke-width="3" fill="#0AC97E"></path>
                        <polyline id="Stroke-3" stroke-width="5.62200022" stroke-linecap="round" stroke-linejoin="round" points="42 26 27.33315 40.1428571 20 33.0711634"></polyline>
                    </g>
                </g>
            </g>
        </g>
    </g>
</svg>