<?xml version="1.0" encoding="UTF-8"?>
<svg width="128px" height="24px" viewBox="0 0 128 24" version="1.1" xmlns="http://www.w3.org/2000/svg" xmlns:xlink="http://www.w3.org/1999/xlink">
    <!-- Generator: Sketch 45.1 (43504) - http://www.bohemiancoding.com/sketch -->
    <title>logo</title>
    <desc>Created with Sketch.</desc>
    <defs></defs>
    <g id="Symbols" stroke="none" stroke-width="1" fill="none" fill-rule="evenodd">
        <g id="Header-Home-Regional" transform="translate(-131.000000, -25.000000)">
            <g id="Header-Regional">
                <g id="logo" transform="translate(131.000000, 25.000000)">
                    <path d="M23.997522,12.0221277 C23.997522,5.42382979 18.6271615,0.074893617 12.0024352,0.074893617 C5.37770895,0.074893617 0.00734846462,5.42382979 0.00734846462,12.0221277 C0.00734846462,18.6204255 5.37770895,23.9693617 12.0024352,23.9693617 C18.6271615,23.9693617 23.997522,18.6204255 23.997522,12.0221277" id="Fill-5" fill="#F3123C"></path>
                    <path d="M17.9104299,6.22842553 C17.4327797,6.22842553 17.041773,6.61787234 17.041773,7.09378723 L17.041773,10.6796596 C17.041773,10.9431489 16.8273004,11.1569362 16.5627557,11.1569362 L13.3502804,11.1569362 C13.0855648,11.1569362 12.8710921,10.9431489 12.8710921,10.6796596 L12.8710921,7.09378723 C12.8710921,6.61787234 12.4802563,6.22842553 12.0024352,6.22842553 C11.5246142,6.22842553 11.1337784,6.61787234 11.1337784,7.09378723 L11.1337784,10.6796596 C11.1337784,10.9431489 10.9193057,11.1569362 10.6545901,11.1569362 L7.44211482,11.1569362 C7.17757009,11.1569362 6.96309746,10.9431489 6.96309746,10.6796596 L6.96309746,7.09378723 C6.96309746,6.61787234 6.57209079,6.22842553 6.09426969,6.22842553 C5.61661949,6.22842553 5.22561282,6.61787234 5.22561282,7.09378723 L5.22561282,16.9506383 C5.22561282,17.426383 5.61661949,17.8158298 6.09426969,17.8158298 C6.57209079,17.8158298 6.96309746,17.426383 6.96309746,16.9506383 L6.96309746,13.364766 C6.96309746,13.1011064 7.17757009,12.8873191 7.44228571,12.8873191 L10.6544192,12.8873191 C10.9191348,12.8873191 11.1337784,13.1011064 11.1337784,13.364766 L11.1337784,16.9506383 C11.1337784,17.426383 11.5246142,17.8158298 12.0024352,17.8158298 C12.4802563,17.8158298 12.8710921,17.426383 12.8710921,16.9506383 L12.8710921,13.364766 C12.8710921,13.1011064 13.0857356,12.8873191 13.3502804,12.8873191 L16.5625848,12.8873191 C16.8273004,12.8873191 17.041773,13.1011064 17.041773,13.364766 L17.041773,16.9506383 C17.041773,17.426383 17.4327797,17.8158298 17.9104299,17.8158298 C18.388251,17.8158298 18.7792577,17.426383 18.7792577,16.9506383 L18.7792577,7.09378723 C18.7792577,6.61787234 18.388251,6.22842553 17.9104299,6.22842553" id="Fill-6" fill="#FFFFFF"></path>
                    <path d="M119.237383,6.63080851 C119.237383,6.12238298 118.821597,5.70638298 118.313356,5.70638298 L118.312844,5.70655319 C118.002841,5.67897872 117.137431,5.70893617 117.137431,5.70893617 C113.218478,5.872 112.898222,7.19591489 112.927274,10.867234 L112.928641,17.323234 C112.928641,17.8316596 113.344427,18.2476596 113.852668,18.2476596 L114.777549,18.2454468 C115.285789,18.2454468 115.701575,17.8294468 115.701575,17.3210213 C115.701575,17.3210213 115.700721,10.9596596 115.700721,10.9537021 C115.678846,9.10859574 115.731995,8.28442553 117.099664,8.28442553 L118.313356,8.28442553 C118.821597,8.28442553 119.237383,7.86842553 119.237383,7.36 L119.237383,6.63080851 L119.237383,6.63080851 Z M99.5975007,15.7504681 C99.2772443,15.7514894 98.6369025,15.7571064 98.3168171,15.7504681 C97.1383284,15.725617 96.8953164,14.3874043 96.8944619,13.3225532 C96.8934366,12.2180426 96.8954873,8.69344681 96.8954873,8.69344681 L99.515984,8.69344681 C100.024224,8.69344681 100.440011,8.27744681 100.440011,7.76902128 L100.440011,7.19234043 C100.440011,6.68391489 100.024224,6.26791489 99.515984,6.26791489 L96.8930948,6.26791489 L96.8907023,4.80851064 L96.8907023,2.82519149 C96.8907023,2.31676596 96.4749159,1.90076596 95.9668465,1.90076596 L95.0361549,1.90076596 C94.5279146,1.90076596 94.1121282,2.31676596 94.1121282,2.82519149 C94.1121282,2.82519149 94.1165714,10.4486809 94.1199893,12.9897872 C94.1242617,16.0389787 94.8186061,18.1693617 98.1930895,18.2408511 C98.5441068,18.2483404 99.5975007,18.2411915 99.5975007,18.2411915 C100.10557,18.2411915 100.521356,17.826383 100.521356,17.3179574 L100.521356,16.6748936 C100.521356,16.1664681 100.10557,15.7485957 99.5975007,15.7504681 L99.5975007,15.7504681 Z M76.6600374,5.69497872 C76.4758131,5.69497872 70.4625474,5.70740426 70.4570788,5.70740426 C68.3468732,5.70740426 65.8282296,6.50417021 65.7697837,10.1598298 L65.7942216,17.3227234 C65.7942216,17.8311489 66.210008,18.2471489 66.7182483,18.2471489 L67.6398825,18.245617 C68.1481228,18.245617 68.5639092,17.829617 68.5639092,17.3211915 L68.5536555,10.053617 C68.5521175,9.6292766 68.5977463,9.0173617 69.0090895,8.60442553 C69.2842296,8.32817021 69.6877116,8.18757447 70.2077437,8.18587234 L71.1544993,8.18774468 C71.1544993,8.18774468 71.9611215,8.18757447 72.0241816,9.05276596 L72.0322136,17.3235745 C72.0322136,17.832 72.448,18.248 72.9562403,18.248 L73.8809506,18.2471489 C74.3789372,18.2471489 74.7872043,17.8473191 74.8034393,17.3526809 C74.8128385,17.3196596 74.7943818,9.13480851 74.7943818,9.07387234 C74.7943818,8.52561702 75.2730574,8.18587234 75.709522,8.18587234 L76.6646515,8.18893617 C78.1418638,8.18893617 78.2618318,9.69480851 78.2633698,10.1564255 L78.2872951,17.3225532 C78.2872951,17.8309787 78.7030814,18.2469787 79.2113218,18.2469787 L80.1373992,18.2471489 C80.6456395,18.2471489 81.0614259,17.8311489 81.0614259,17.3227234 L81.0598879,9.97565957 C81.0545901,7.31148936 79.4099012,5.69497872 76.6600374,5.69497872 L76.6600374,5.69497872 Z M126.27106,11.8915745 C124.527594,10.4505532 121.722702,9.98570213 122.636475,8.55489362 C122.919989,8.11097872 123.504961,8.09140426 124.132144,8.12306383 C124.525714,8.14297872 124.897239,8.24646809 125.225527,8.38161702 C125.804005,8.65923404 126.186467,8.96765957 126.224919,8.99455319 C126.274649,9.02893617 126.331044,9.05293617 126.390003,9.072 C126.712822,9.17565957 127.14604,9.05378723 127.384267,8.75506383 C127.460144,8.65974468 127.61224,8.46910638 127.688288,8.37361702 C127.976929,8.01174468 127.95232,7.49157447 127.64078,7.16680851 C127.583872,7.10757447 127.526793,7.05225532 127.469202,6.99965957 C127.409559,6.94553191 126.992235,6.61889362 126.925244,6.57106383 L126.924219,6.57140426 C125.568171,5.66297872 124.08925,5.6626383 123.946211,5.66570213 C121.36878,5.71795745 119.743231,6.91370213 119.743231,9.26757447 C119.743231,9.832 120.111338,11.0015319 121.869501,11.965617 C123.958857,13.1114894 125.692411,14.147234 125.13615,15.210383 C124.90322,15.6558298 124.201356,15.8369362 123.574174,15.8052766 C123.066104,15.7795745 122.595461,15.6146383 122.206505,15.4221277 C121.735178,15.1734468 121.501736,14.9657872 121.339899,14.8748936 C121.015712,14.6929362 120.503883,14.8100426 120.237458,15.1441702 C120.16141,15.2394894 120.009485,15.4301277 119.933437,15.5254468 C119.716059,15.7979574 119.676582,16.16 119.803215,16.4609362 C119.844742,16.5598298 119.903872,16.6520851 119.980945,16.7324255 C120.211824,16.9731064 120.449025,17.1516596 120.696481,17.3281702 L120.700582,17.3266383 C122.100721,18.3458723 123.613479,18.2657021 123.759936,18.2628085 C126.337367,18.2105532 127.670003,16.8177021 127.798344,14.9230638 C127.855765,14.0771064 127.609848,12.9981277 126.27106,11.8915745 L126.27106,11.8915745 Z M31.3025794,18.248 C31.4868037,18.248 37.4998985,18.2355745 37.5055381,18.2355745 C39.6155728,18.2355745 42.1342163,17.4388085 42.1926622,13.7831489 L42.1682243,6.62025532 C42.1682243,6.11165957 41.7524379,5.69582979 41.2443685,5.69582979 L40.3225634,5.6973617 C39.814494,5.6973617 39.3985367,6.1133617 39.3985367,6.62178723 L39.4089613,13.8893617 C39.4103284,14.3137021 39.3646996,14.925617 38.9535274,15.3385532 C38.6783872,15.6146383 38.2749052,15.7554043 37.7547023,15.7571064 L36.8081175,15.755234 C36.8081175,15.755234 36.0013244,15.755234 35.9384352,14.8900426 L35.9304032,6.61940426 C35.9304032,6.11080851 35.5146168,5.69497872 35.0063765,5.69497872 L34.0816662,5.69582979 C33.5835087,5.69582979 33.1752417,6.09548936 33.1591776,6.59012766 C33.1497784,6.62314894 33.1680641,14.8081702 33.1680641,14.8691064 C33.1680641,15.4171915 32.6893885,15.7571064 32.2529239,15.7571064 L31.2979653,15.7540426 C29.820753,15.7540426 29.700785,14.2481702 29.6990761,13.786383 L29.6751509,6.62025532 C29.6751509,6.11182979 29.2593645,5.69582979 28.7511242,5.69582979 L27.8252176,5.69582979 C27.3169773,5.69582979 26.9011909,6.11165957 26.9011909,6.62025532 L26.902729,13.9671489 C26.9078558,16.6314894 28.5525447,18.248 31.3025794,18.248 L31.3025794,18.248 Z M106.384577,5.69497872 C104.827386,5.69497872 103.540721,6.15982979 102.663348,7.03948936 C101.856214,7.84834043 101.431028,8.96051064 101.433591,10.256 L101.441282,13.6866383 C101.446579,16.4573617 103.396828,18.2476596 106.409527,18.2476596 C107.960566,18.2476596 109.245693,17.7812766 110.1258,16.8990638 C110.936182,16.0866383 111.363247,14.9758298 111.360684,13.6862979 L111.352993,10.2556596 C111.347525,7.48510638 109.397447,5.69497872 106.384577,5.69497872 L106.384577,5.69497872 Z M108.061052,15.1800851 C107.68628,15.5559149 107.129164,15.746383 106.405255,15.746383 C104.993666,15.746383 104.215071,15.0148085 104.212507,13.6862979 L104.204646,10.2311489 C104.20345,9.60731915 104.379642,9.11370213 104.728096,8.76442553 C105.104064,8.38723404 105.66306,8.19625532 106.389191,8.19625532 C107.800609,8.19625532 108.579204,8.91897872 108.581768,10.2314894 L108.589629,13.6866383 C108.590825,14.324766 108.413095,14.8274043 108.061052,15.1800851 L108.061052,15.1800851 Z M87.5759252,5.69497872 C86.0187343,5.69497872 84.7318985,6.15982979 83.854526,7.03948936 C83.0475621,7.84817021 82.6223765,8.96051064 82.624769,10.256 L82.6326302,13.6866383 C82.6379279,16.4573617 84.5880053,18.2476596 87.6008758,18.2476596 C89.1519146,18.2476596 90.4370414,17.7812766 91.3171482,16.8990638 C92.12753,16.0866383 92.5544246,14.9758298 92.552032,13.6862979 L92.5441709,10.2556596 C92.5388732,7.48510638 90.5886248,5.69497872 87.5759252,5.69497872 L87.5759252,5.69497872 Z M89.2522296,15.1800851 C88.8774579,15.5559149 88.3201709,15.746383 87.5962617,15.746383 C86.1848438,15.746383 85.4062483,15.0148085 85.4036849,13.6862979 L85.3958238,10.2311489 C85.3946275,9.60731915 85.5708198,9.11370213 85.9194446,8.76425532 C86.2954126,8.38723404 86.8542377,8.19625532 87.5803685,8.19625532 C88.9919573,8.19625532 89.7705527,8.91897872 89.7731162,10.2314894 L89.7808064,13.6866383 C89.7820027,14.324766 89.6041015,14.8274043 89.2522296,15.1800851 L89.2522296,15.1800851 Z M60.0767744,5.72987234 C59.9913271,5.72987234 57.6851055,5.73838298 57.2171963,5.74008511 L57.2156582,3.05889362 C57.2156582,3.05719149 57.2158291,3.05548936 57.2158291,3.05395745 L57.2158291,1.07080851 C57.2158291,0.562212766 56.8000427,0.146212766 56.2918024,0.146212766 L55.3662377,0.145531915 C54.8579973,0.145531915 54.4422109,0.561531915 54.4422109,1.06995745 L54.4822003,14.164766 C54.4869853,16.6129362 56.4442403,18.2580426 59.353036,18.2580426 C60.8722884,18.2580426 62.1264833,17.8059574 62.9799306,16.9504681 C63.7855274,16.1428085 64.2102003,15.0177021 64.2076368,13.6966809 L64.1987503,9.77395745 C64.1958451,8.26365957 63.656502,5.72987234 60.0767744,5.72987234 L60.0767744,5.72987234 Z M59.3303071,15.7033191 C57.8638611,15.7033191 57.2371909,15.1904681 57.2347984,13.9880851 L57.219247,8.22553191 C58.4339653,8.224 58.9001656,8.22519149 59.4605287,8.22553191 C60.8864726,8.22655319 61.4184673,8.60408511 61.4193218,9.62212766 C61.4201762,10.6275745 61.4181255,13.6439149 61.4181255,13.6439149 C61.4196636,14.4330213 61.4193218,15.7033191 59.3303071,15.7033191 L59.3303071,15.7033191 Z M52.0582323,12.6898723 C52.732753,12.013617 53.0736876,11.0660426 53.0712951,9.87319149 C53.0663391,7.22502128 51.4404486,5.70604255 48.6109479,5.70604255 C47.0597383,5.70604255 45.7840107,6.16306383 44.9216769,7.02740426 C44.156753,7.79421277 43.7536128,8.83795745 43.7560053,10.045617 L43.7648919,13.944 C43.7696769,16.5101277 45.6792523,18.1824681 48.5150761,18.2342128 C48.7085287,18.237617 51.0637971,18.356766 52.7742804,16.5741277 C53.0847957,16.2505532 53.1094045,15.7320851 52.8217891,15.3714043 C52.7459119,15.2764255 52.5944993,15.0864681 52.5186222,14.9914894 C52.2380134,14.6393191 51.6838024,14.5298723 51.3635461,14.7528511 C51.2953591,14.8005106 50.1348144,15.7431489 48.7196368,15.8071489 C48.0295648,15.8384681 47.4633912,15.7314043 47.0739226,15.380766 C46.728032,15.0694468 46.5371429,14.6028936 46.5361175,14.0667234 L46.5344085,13.6822128 C47.2331963,13.7889362 47.9104513,13.8408511 48.6020614,13.8408511 C50.1336182,13.8408511 51.2963845,13.453617 52.0582323,12.6898723 L52.0582323,12.6898723 Z M46.5294526,11.4665532 L46.5267183,9.89770213 C46.5258638,9.36408511 46.6912897,8.91574468 47.005223,8.60102128 C47.3586328,8.24680851 47.8986595,8.05957447 48.5668571,8.05957447 C49.7800374,8.05957447 50.4308037,8.77157447 50.4308037,9.97514894 C50.4308037,11.4885106 49.20549,11.6051064 48.573522,11.6051064 C48.2120801,11.6051064 47.3140294,11.5571064 46.5294526,11.4665532 L46.5294526,11.4665532 Z" id="Combined-Shape" fill="#000000"></path>
                </g>
            </g>
        </g>
    </g>
</svg>